<svg width="19" height="26" viewBox="0 0 19 26" fill="none" xmlns="http://www.w3.org/2000/svg">
<path d="M18.7493 10.3873C18.8128 10.7641 18.7298 11.2302 18.5005 11.7855C18.2972 12.3041 18.0181 12.8516 17.6631 13.4281C17.3395 13.9992 16.9845 14.5757 16.5982 15.1574C16.2065 15.7078 15.8854 16.1978 15.6349 16.6275C14.9249 17.7804 14.113 18.9989 13.1991 20.2831C12.2799 21.5358 11.3505 22.9194 10.4108 24.434C10.1388 24.5444 9.64698 24.6918 8.93535 24.8763C8.22901 25.0921 7.48334 25.2661 6.69833 25.3984C6.25872 25.4724 5.81383 25.5151 5.36365 25.5263C4.95015 25.5637 4.56012 25.5487 4.19356 25.4812C3.86369 25.4399 3.58869 25.3409 3.36855 25.1843C3.14841 25.0276 3.0119 24.7923 2.959 24.4783C2.85851 23.8817 3.00128 23.1956 3.38732 22.4202C3.77337 21.6448 4.26667 20.8351 4.86722 19.9913C5.49389 19.1107 6.16765 18.2222 6.88852 17.3258C7.6355 16.3927 8.30662 15.4885 8.90189 14.6132C9.52856 13.7327 10.0323 12.889 10.413 12.0822C10.7885 11.2439 10.9207 10.4951 10.8096 9.8357C10.7408 9.4275 10.4627 9.02227 9.97515 8.62003C9.48231 8.18638 8.87958 7.77125 8.16695 7.37463C7.44902 6.94661 6.67094 6.54486 5.8327 6.1694C5.02587 5.78865 4.24002 5.43665 3.47516 5.11341C2.74171 4.78488 2.08163 4.50857 1.49493 4.28448C0.934343 4.02371 0.55968 3.81234 0.370943 3.65038C0.334253 3.62427 0.313264 3.59552 0.307975 3.56412C0.265661 3.31292 0.312258 3.01444 0.447768 2.66871C0.614678 2.31768 0.831333 1.97442 1.09773 1.63892C1.39553 1.29814 1.70127 1.00445 2.01494 0.757866C2.36001 0.505993 2.70524 0.350966 3.05065 0.292784C3.45885 0.224024 3.88028 0.233765 4.31493 0.322006C4.77569 0.373557 5.26554 0.597811 5.78449 0.994767C6.31367 1.26083 6.98962 1.63134 7.81232 2.1063C8.66643 2.57596 9.56251 3.10314 10.5006 3.68782C11.4333 4.24111 12.3741 4.8415 13.3227 5.48899C14.2974 6.09979 15.1754 6.71075 15.9564 7.32189C16.7375 7.93302 17.385 8.51821 17.899 9.07746C18.4077 9.60531 18.6911 10.0419 18.7493 10.3873Z" fill="black"/>
</svg>
