<svg width="8" height="7" viewBox="0 0 8 7" fill="none" xmlns="http://www.w3.org/2000/svg">
<path d="M6.86342 0.502343C7.0532 0.667528 7.1891 0.81514 7.27345 0.944007C7.35663 1.07288 7.40349 1.20057 7.41169 1.3271C7.4152 1.44308 7.38943 1.56492 7.3332 1.69378C7.28165 1.81914 7.21487 1.96089 7.13287 2.11787C7.11295 2.14013 7.07429 2.15771 7.01571 2.17059C6.95245 2.17294 6.85873 2.15653 6.73455 2.12373C6.55648 2.31938 6.35497 2.54197 6.13121 2.78799C5.90745 3.03518 5.68486 3.28003 5.46344 3.5237C5.23968 3.77089 5.02998 4.00168 4.83551 4.21607C4.64103 4.43046 4.48288 4.60502 4.36104 4.73857L3.145 6.0788C3.13563 6.08934 3.11688 6.10926 3.09111 6.13854C3.05596 6.15963 3.01965 6.18306 2.98216 6.20766C2.9435 6.23227 2.90718 6.2557 2.87321 6.27678C2.83454 6.30139 2.80643 6.31544 2.78886 6.31896L2.44677 6.0085C2.4046 5.96984 2.36476 5.91127 2.32962 5.8316C2.2933 5.75194 2.26636 5.6711 2.24878 5.5891C2.21949 5.50241 2.20426 5.42626 2.20309 5.35831C2.19021 5.28685 2.19255 5.24233 2.20895 5.22475C2.37999 5.03614 2.58618 4.80886 2.82752 4.5441C3.06533 4.28285 3.32073 4.00051 3.59369 3.69943C3.86783 3.39835 4.15368 3.09141 4.45242 2.77979C4.75116 2.46816 5.04521 2.16825 5.33575 1.8824C5.61809 1.58835 5.88988 1.32241 6.15347 1.08342C6.41941 0.840913 6.65723 0.64644 6.8681 0.5L6.86342 0.502343Z" fill="black"/>
<path d="M0.476593 2.78379C0.358269 2.7709 0.244631 2.83885 0.200113 2.94897C0.139194 3.09893 0.0911614 3.23834 0.0560157 3.36955C0.00329715 3.54528 -0.0119327 3.67766 0.00915476 3.76787C0.0325852 3.8651 0.0935045 3.97171 0.191912 4.08652C0.28212 4.1943 0.3899 4.30208 0.516424 4.40986C0.63592 4.51881 0.762444 4.62777 0.894827 4.7332C1.02604 4.83161 1.13733 4.92182 1.22871 5.00265C1.48059 5.21821 1.18771 5.02023 1.49348 5.24867C1.7969 5.46892 2.11555 5.7208 2.44827 6.00431C2.51387 6.00665 2.62634 5.99728 2.78684 5.97619C2.94968 5.9633 3.05863 5.85435 3.22967 5.81452C3.32457 5.79226 2.87236 5.60716 2.96491 5.5685C3.0516 5.53921 3.32574 5.62005 3.39369 5.56967C3.45578 5.52867 3.30465 5.3588 3.33394 5.30022C3.36323 5.24164 3.36791 5.17135 3.34917 5.09052C3.31285 4.93588 3.82129 5.01906 3.67017 4.86559C3.51904 4.71212 3.34214 4.55982 3.14181 4.40986C2.93211 4.25288 2.71186 4.09824 2.48224 3.94594C2.24325 3.78778 2.59471 4.04903 2.39203 3.89088C2.18233 3.73389 2.00074 3.57457 1.84728 3.4129C1.75824 3.31566 1.68912 3.21842 1.63757 3.12119C1.56611 2.98529 1.43958 2.88922 1.28729 2.87282L0.476593 2.78496V2.78379Z" fill="black"/>
</svg>
