<svg xmlns="http://www.w3.org/2000/svg" width="14.904" height="17.321" viewBox="0 0 14.904 17.321">
  <path id="threads" d="M27.865,23.926c.079.032.152.069.227.1a4.429,4.429,0,0,1,2.23,2.215,4.675,4.675,0,0,1-1.093,5.166,6.807,6.807,0,0,1-5.145,1.912h-.011a7.016,7.016,0,0,1-5.787-2.533A9.827,9.827,0,0,1,16.5,24.67v-.018a9.8,9.8,0,0,1,1.782-6.119A7.023,7.023,0,0,1,24.073,16h.011a7.217,7.217,0,0,1,5.855,2.522A7.911,7.911,0,0,1,31.4,21.469l-1.458.39a6.341,6.341,0,0,0-1.162-2.36,5.8,5.8,0,0,0-4.708-1.97,5.621,5.621,0,0,0-4.625,1.963A8.343,8.343,0,0,0,18,24.659a8.362,8.362,0,0,0,1.454,5.17,5.617,5.617,0,0,0,4.625,1.963,5.356,5.356,0,0,0,4.1-1.476,3.144,3.144,0,0,0,.772-3.46A2.754,2.754,0,0,0,27.8,25.6a4.763,4.763,0,0,1-.891,2.338,3.4,3.4,0,0,1-2.623,1.274,3.826,3.826,0,0,1-2.305-.577,2.688,2.688,0,0,1-1.237-2.139c-.09-1.743,1.288-2.994,3.435-3.117a9.56,9.56,0,0,1,2.136.1,2.563,2.563,0,0,0-.527-1.27,2.1,2.1,0,0,0-1.667-.642h-.025a2.2,2.2,0,0,0-1.923.949l-1.241-.851A3.651,3.651,0,0,1,24.1,20.034h.029c2.258.014,3.6,1.425,3.741,3.886l-.007.007Zm-5.628,2.482c.047.906,1.025,1.328,1.97,1.274.924-.051,1.97-.411,2.147-2.641a7.329,7.329,0,0,0-1.566-.159c-.173,0-.346,0-.52.014-1.548.087-2.064.837-2.028,1.508l0,0Z" transform="translate(-16.5 -16)" fill="#fff"/>
</svg>
