<svg xmlns="http://www.w3.org/2000/svg" width="19.81" height="14" viewBox="0 0 19.81 14">
  <path id="Path_1216" data-name="Path 1216" d="M43.233,9.83a2.053,2.053,0,0,1-.374,1.044A8.125,8.125,0,0,1,42,12.03q-.486.6-1.046,1.193-.56.559-.934,1.006-1.046,1.193-2.353,2.5-1.307,1.267-2.689,2.832a10.66,10.66,0,0,1-1.194.148,13.837,13.837,0,0,1-1.791.11,7.374,7.374,0,0,1-1.044-.076,3.363,3.363,0,0,1-.9-.188,1.391,1.391,0,0,1-.6-.336.807.807,0,0,1-.223-.6,2.656,2.656,0,0,1,.6-1.529,14.263,14.263,0,0,1,1.457-1.677q.9-.894,1.9-1.789,1.046-.932,1.9-1.826a13.045,13.045,0,0,0,1.494-1.752,3.068,3.068,0,0,0,.6-1.678,1.654,1.654,0,0,0-.484-1.045,8.085,8.085,0,0,0-1.23-1.2,17.644,17.644,0,0,0-1.64-1.233q-.857-.6-1.678-1.121-.783-.523-1.417-.9a4.292,4.292,0,0,1-.783-.635.108.108,0,0,1-.037-.075,1.338,1.338,0,0,1,.225-.671,4.188,4.188,0,0,1,.635-.708A5.341,5.341,0,0,1,31.6.229a1.919,1.919,0,0,1,.858-.223,2.685,2.685,0,0,1,.97.188A2.37,2.37,0,0,1,34.475.9q.559.411,1.416,1.121.895.71,1.864,1.569.969.822,1.938,1.756A24.159,24.159,0,0,1,41.482,7.1,12.66,12.66,0,0,1,42.749,8.71,2.24,2.24,0,0,1,43.233,9.83Z" transform="translate(-0.006 43.233) rotate(-90)"/>
</svg>
